<svg width="134" height="100" fill="none" xmlns="http://www.w3.org/2000/svg"><circle cx="69" cy="50" r="50" fill="#68B738"/><g clip-path="url(#clip0)"><path d="M123.1 25.8a15.2 15.2 0 014.5-4.6c1-.7 1.6-.7 2.2.6.8 1.9 1.5 3.9.9 6a2.29 2.29 0 00.4 2.1c.6.8 1.1 1.6 1.6 2.3a6.28 6.28 0 01.9 6.2c-.37 1-.44 2.07-.2 3.1.2.99.2 2.01 0 3a3.75 3.75 0 01-2.7 3.2 5.21 5.21 0 00-3.2 2 1.05 1.05 0 01-.9.5c-1.2.2-4.2-2.5-4.2-3.7v-.6c.1-3.6-.1-3.9-3.4-5.4a4.38 4.38 0 01-1.8-1.2c-.6-.8-1.4-.7-2.3-.4-.9.3-1.4.9-1.3 1.9.3 2.42.4 4.86.3 7.3 0 .28.07.55.2.8 3.1 4.5 4.3 9.8 5.8 14.9 1.2 3.9 3.4 6 7.4 6.3.64.05 1.27.15 1.9.3a4.16 4.16 0 013.4 3.2c.7 2.1.3 2.6-1.8 2.6h-6.5a3.24 3.24 0 01-2.3-.8 11.71 11.71 0 00-3.4-2 7.26 7.26 0 01-3.4-2.6 28.59 28.59 0 00-4-4.5c-2.8-2.9-5.8-5.7-8.4-8.7a11.38 11.38 0 01-3.2-7.6c0-.9-.2-1.3-1.2-.9-.3.19-.65.3-1 .3-2.8 0-4.2 1.7-5.2 4.2-.9 2.1-2.1 4.1-3.2 6.2a10.4 10.4 0 00-1 4.2c0 2.4.6 3.2 2.8 4 1.4.5 2.7 1 3.4 2.4.8 1.6.6 2-1.1 2.1h-6.8a1.88 1.88 0 01-1.9-1.1l-1.8-3a6.05 6.05 0 01-.7-5.4c.43-1.74.47-3.55.1-5.3a8.42 8.42 0 011.7-7c.6-.7.6-1-.4-1.2a50.06 50.06 0 01-11.87-4.13.1.1 0 01-.03-.07c-3.2-1.2-3.8-1-4.7 2.3-.8 2.8-1.6 5.6-2.2 8.5-.7 3.2.1 6.2 1.1 9.2.4 1.2 1.6 1.1 2.5 1.4 2 .6 3.7 1.4 4.5 3.5.7 1.6.6 1.8-1.1 1.8-1.7 0-3.4-.1-5.2 0-1.52.03-3-.47-4.2-1.4-4.8-3.2-6.2-8.1-6.6-13.4-.2-3.3-2-5.9-4.1-8.4-.4-.5-.8-.7-1.4-.3a44.31 44.31 0 01-6.7 3 26.71 26.71 0 00-12.2 8.8 10.63 10.63 0 00-2.2 5.1c-.3 1.8.2 2.6 2 3.1s2.7 1.5 2.9 3.4c.1.8-.2 1.2-1 1.2h-8.1a1.65 1.65 0 01-1.3-.8 8.56 8.56 0 01-1.9-5.5c-.05-3.46.25-6.9.9-10.3a6.3 6.3 0 013.4-4.8c5.9-2.8 9-8.1 11.8-13.6.6-1.1.1-1.3-.9-1.2-2.8.39-5.45 1.5-7.7 3.2a70.61 70.61 0 00-8.3 7.1 16.67 16.67 0 01-10.3 4.9C3.1 52.5-.3 48.4 0 41.8c.07-2.25.92-4.4 2.4-6.1a4.25 4.25 0 014.5-1.5c1.5.4 1.9 1.2 1.3 2.7-.3.6-.7 1.1-1 1.7a7.5 7.5 0 00-1 2c-1.1 3 .4 5.1 3.5 5.4 3.3.3 6-1.1 8.5-3.1 3.01-2.41 5.7-5.2 8-8.3a20.8 20.8 0 0114.4-8.1c2.3-.3 4.3-1.3 6.5-1.9a41.51 41.51 0 0112.7-1.8 13 13 0 005.8-1.1c4.9-2 10-2 15.1-1 4 .8 8 1.8 11.9 2.8 2.32.43 4.7.36 7-.2a67.8 67.8 0 0113.4-2c2.96-.14 5.92.44 8.6 1.7 2 .9 2 .9 1.5 2.8z" fill="#000"/></g><defs><clipPath id="clip0"><path fill="#fff" transform="translate(0 20)" d="M0 0h134v56H0z"/></clipPath></defs></svg>