<svg width="268" height="200" fill="none" xmlns="http://www.w3.org/2000/svg"><circle cx="136" cy="100" r="100" fill="#68B738"/><g clip-path="url(#clip0)"><path d="M246.2 55.6a30.4 30.4 0 019-9.2c2-1.4 3.2-1.4 4.4 1.2 1.6 3.8 3 7.8 1.8 12a4.58 4.58 0 00.8 4.2c1.2 1.6 2.2 3.2 3.2 4.6a12.54 12.54 0 011.8 12.4 10.86 10.86 0 00-.4 6.2c.4 1.98.4 4.02 0 6a7.5 7.5 0 01-5.4 6.4 10.42 10.42 0 00-6.4 4 2.1 2.1 0 01-1.8 1c-2.4.4-8.4-5-8.4-7.4v-1.2c.2-7.2-.2-7.8-6.8-10.8a8.78 8.78 0 01-3.6-2.4c-1.2-1.6-2.8-1.4-4.6-.8-1.8.6-2.8 1.8-2.6 3.8.6 4.84.8 9.73.6 14.6.01.56.15 1.1.4 1.6 6.2 9 8.6 19.6 11.6 29.8 2.4 7.8 6.8 12 14.8 12.6 1.28.1 2.55.3 3.8.6a8.32 8.32 0 016.8 6.4c1.4 4.2.6 5.2-3.6 5.2h-13a6.48 6.48 0 01-4.6-1.6 23.41 23.41 0 00-6.8-4 14.53 14.53 0 01-6.8-5.2 57.21 57.21 0 00-8-9c-5.6-5.8-11.6-11.4-16.8-17.4a22.76 22.76 0 01-6.4-15.2c0-1.8-.4-2.6-2.4-1.8-.6.38-1.3.59-2 .6-5.6 0-8.4 3.4-10.4 8.4-1.8 4.2-4.2 8.2-6.4 12.4a20.79 20.79 0 00-2 8.4c0 4.8 1.2 6.4 5.6 8 2.8 1 5.4 2 6.8 4.8 1.6 3.2 1.2 4-2.2 4.2h-13.6a3.75 3.75 0 01-3.8-2.2l-3.6-6a12.1 12.1 0 01-1.4-10.8c.87-3.47.93-7.1.2-10.6a16.84 16.84 0 013.4-14c1.2-1.4 1.2-2-.8-2.4a100.1 100.1 0 01-23.74-8.26.2.2 0 01-.06-.14c-6.4-2.4-7.6-2-9.4 4.6-1.6 5.6-3.2 11.2-4.4 17-1.4 6.4.2 12.4 2.2 18.4.8 2.4 3.2 2.2 5 2.8 4 1.2 7.4 2.8 9 7 1.4 3.2 1.2 3.6-2.2 3.6-3.4 0-6.8-.2-10.4 0-3.04.06-6-.93-8.4-2.8-9.6-6.4-12.4-16.2-13.2-26.8-.4-6.6-4-11.8-8.2-16.8-.8-1-1.6-1.4-2.8-.6a88.65 88.65 0 01-13.4 6 53.42 53.42 0 00-24.4 17.6 21.26 21.26 0 00-4.4 10.2c-.6 3.6.4 5.2 4 6.2s5.4 3 5.8 6.8c.2 1.6-.4 2.4-2 2.4H49.4a3.31 3.31 0 01-2.6-1.6c-2.51-3.11-3.86-7-3.8-11-.1-6.91.5-13.81 1.8-20.6a12.6 12.6 0 016.8-9.6c11.8-5.6 18-16.2 23.6-27.2 1.2-2.2.2-2.6-1.8-2.4-5.6.78-10.9 2.98-15.4 6.4-5.9 4.3-11.44 9.05-16.6 14.2a33.34 33.34 0 01-20.6 9.8C6.2 109-.6 100.8 0 87.6c.13-4.5 1.83-8.81 4.8-12.2a8.5 8.5 0 019-3c3 .8 3.8 2.4 2.6 5.4-.6 1.2-1.4 2.2-2 3.4a15 15 0 00-2 4c-2.2 6 .8 10.2 7 10.8 6.6.6 12-2.2 17-6.2a89.88 89.88 0 0016-16.6A41.58 41.58 0 0181.2 57c4.6-.6 8.6-2.6 13-3.8a83.02 83.02 0 0125.4-3.6 26 26 0 0011.6-2.2c9.8-4 20-4 30.2-2 8 1.6 16 3.6 23.8 5.6 4.64.86 9.42.73 14-.4a135.58 135.58 0 0126.8-4c5.93-.29 11.83.88 17.2 3.4 4 1.8 4 1.8 3 5.6z" fill="#000"/></g><defs><clipPath id="clip0"><path fill="#fff" transform="translate(0 44)" d="M0 0h268v112H0z"/></clipPath></defs></svg>