<svg width="200" height="211" fill="none" xmlns="http://www.w3.org/2000/svg"><circle cx="100" cy="111" r="100" fill="#68B738"/><g clip-path="url(#clip0)"><path d="M139.68 0h-.76A6.96 6.96 0 00136 3.15c-1.13 2.14-2 4.4-2.58 6.75a3.21 3.21 0 01-2.96 2.65A14.76 14.76 0 00120 20.03a53.8 53.8 0 00-3.7 7.92c-2.84 7.28-5.02 14.8-7.7 22.15-1.26 3.34-1.32 3.34-5.12 3.34-4.54 0-4.22-.69-4.28 4.26 0 1.56.48 2.35 2.16 2.28.52 0 1.3-.26 1.5.41.2.67-.48.97-.88 1.37a18.05 18.05 0 01-8.66 4.83c-3.8 1-7.68 1.8-11.38 3.02-9.5 3.15-18.28 7.55-25.12 14.99-4 4.62-7.2 9.86-9.48 15.52-7.34 17.1-10.9 35.11-13.66 53.3a368.2 368.2 0 00-2.92 25.73C30.4 183.4 30 187.68 30 192h66.66a4.28 4.28 0 00-.46-2.53 9.9 9.9 0 00-7.66-6.08c-1.4-.32-1.56-.73-.7-1.82a20.42 20.42 0 003.18-6.14c3.26-9.52 4.52-19.46 6.1-29.3A58.96 58.96 0 01104 124.7a42.9 42.9 0 0111.18-12.6c1.66-1.25 1.72-1.25 2 .86.2 1.4.24 2.85.34 4.28.6 9.35.48 18.73-.36 28.07a120.8 120.8 0 00-.3 21.77c.8 8.42 2.31 16.76 4.54 24.92H148a10.67 10.67 0 00-2.86-5.7 10.85 10.85 0 00-5.62-3.09c-2.5-.4-5.07-.26-7.52.4-1.2.27-1.7 0-1.8-1.29a110.44 110.44 0 012-31.31 348.46 348.46 0 006.12-35.99c.53-4.88 2.08-9.6 4.56-13.85 2.38-4.2 4.46-8.55 6.8-12.77a11.54 11.54 0 00.84-10.27c-.54-1.4-1.06-2.83-1.72-4.18-2-3.86-4-7.68-5.84-11.58-.98-1.98-.76-2.22 1.42-2.28 3.26 0 3.26 0 3.32-3.24v-1.3c0-1.37-.52-2.13-2-1.99h-3.04c-1.38 0-1.78-.57-1.44-1.98.68-2.28 2-4.32 3.82-5.88a12.54 12.54 0 016.44-2.89c4.43-.38 8.9-.09 13.24.86a2.02 2.02 0 002.5-1.27c.8-1.98 1.68-3.96 2.58-5.94a1.96 1.96 0 00-.2-2.26c-6.4-8.03-13.34-15.53-22.8-20.34a2.97 2.97 0 01-1.76-2.22 38.46 38.46 0 00-2.54-8.24 6.94 6.94 0 00-2.82-3.4z" fill="#000"/></g><defs><clipPath id="clip0"><path fill="#fff" transform="translate(30)" d="M0 0h140v192H0z"/></clipPath></defs></svg>