<svg width="80" height="83" fill="none" xmlns="http://www.w3.org/2000/svg"><path d="M65.66 35.83H14.39a3.27 3.27 0 01-3.26-3.26v-9.78c0-1.8 1.46-3.26 3.26-3.26h51.27c1.8 0 3.26 1.47 3.26 3.26v9.78c0 1.8-1.46 3.26-3.26 3.26zm-51.27-13.8a.77.77 0 00-.76.76v9.78c0 .42.34.76.76.76h51.27c.42 0 .76-.34.76-.76v-9.78a.77.77 0 00-.76-.76H14.39z" fill="#fff"/><path d="M58.5 69.3H21.55a6.29 6.29 0 01-6.28-6.27V34.58a1.25 1.25 0 012.5 0v28.45c0 2.08 1.7 3.78 3.78 3.78H58.5c2.08 0 3.78-1.7 3.78-3.78V34.58a1.25 1.25 0 012.5 0v28.45a6.29 6.29 0 01-6.28 6.28z" fill="#fff"/><path d="M40.02 69.3c-.69 0-1.25-.55-1.25-1.24V34.58a1.25 1.25 0 012.5 0v33.48c0 .69-.56 1.25-1.25 1.25zM24.42 22.03a8.08 8.08 0 017.69-14.2c5.96 3.23 9.18 12.24 9.31 12.62l-2.36.83c-.03-.08-3.03-8.48-8.14-11.25a5.58 5.58 0 00-5.3 9.8l-1.2 2.2z" fill="#fff"/><path d="M55.62 22.03l-1.19-2.2a5.54 5.54 0 002.25-7.55 5.53 5.53 0 00-7.55-2.25c-5.1 2.77-8.12 11.17-8.15 11.25l-2.36-.83c.14-.38 3.36-9.39 9.32-12.62a8.02 8.02 0 016.14-.64c2.07.62 3.77 2 4.8 3.9a8.01 8.01 0 01.64 6.14 8.03 8.03 0 01-3.9 4.8zM63.54 52.57H16.5a1.25 1.25 0 010-2.5h47.03a1.25 1.25 0 010 2.5z" fill="#fff"/></svg>